<svg xmlns="http://www.w3.org/2000/svg" viewBox="0 0 350 100" fill="none">
  <defs>
    <linearGradient id="markGradient" x1="0" y1="0" x2="1" y2="1">
      <stop offset="0%" stop-color="#6058d4" />
      <stop offset="100%" stop-color="#4a40c4" />
    </linearGradient>
  </defs>

  <rect x="0" y="10" width="80" height="80" rx="20" fill="url(#markGradient)" />

  <g transform="translate(20, 30)">
    <svg width="40" height="40" viewBox="0 0 24 24" fill="none" stroke="#fff" stroke-width="2.2" stroke-linecap="round" stroke-linejoin="round">
      <path d="M9.5 2A2.5 2.5 0 0 1 12 4.5v15a2.5 2.5 0 0 1-4.96-.44 2.5 2.5 0 0 1-2.96-3.08 3 3 0 0 1-.34-5.58 2.5 2.5 0 0 1 1.32-4.24 2.5 2.5 0 0 1 4.44-1.66Z" />
      <path d="M14.5 2A2.5 2.5 0 0 0 12 4.5v15a2.5 2.5 0 0 0 4.96-.44 2.5 2.5 0 0 0 2.96-3.08 3 3 0 0 0 .34-5.58 2.5 2.5 0 0 0-1.32-4.24 2.5 2.5 0 0 0-4.44-1.66Z" />
    </svg>
  </g>

  <text x="100" y="70" font-family="'Cormorant Garamond', serif" font-size="64" font-weight="700" letter-spacing="0.14em" fill="#FFFFFF">C<tspan fill="#4a40c4">I</tspan>RA</text>
</svg>